<?xml version="1.0" encoding="UTF-8" standalone="no"?>
<svg
   xmlns:dc="http://purl.org/dc/elements/1.1/"
   xmlns:cc="http://creativecommons.org/ns#"
   xmlns:rdf="http://www.w3.org/1999/02/22-rdf-syntax-ns#"
   xmlns:svg="http://www.w3.org/2000/svg"
   xmlns="http://www.w3.org/2000/svg"
   xmlns:sodipodi="http://sodipodi.sourceforge.net/DTD/sodipodi-0.dtd"
   xmlns:inkscape="http://www.inkscape.org/namespaces/inkscape"
   viewBox="0 0 20.889735 33.093166"
   version="1.1"
   id="svg4543"
   sodipodi:docname="allego.svg"
   inkscape:version="0.92.1 r"
   width="20.889734"
   height="33.093166">
  <metadata
     id="metadata4549">
    <rdf:RDF>
      <cc:Work
         rdf:about="">
        <dc:format>image/svg+xml</dc:format>
        <dc:type
           rdf:resource="http://purl.org/dc/dcmitype/StillImage" />
        <dc:title></dc:title>
      </cc:Work>
    </rdf:RDF>
  </metadata>
  <defs
     id="defs4547" />
  <sodipodi:namedview
     pagecolor="#ffffff"
     bordercolor="#666666"
     borderopacity="1"
     objecttolerance="10"
     gridtolerance="10"
     guidetolerance="10"
     inkscape:pageopacity="0"
     inkscape:pageshadow="2"
     inkscape:window-width="1920"
     inkscape:window-height="1016"
     id="namedview4545"
     showgrid="false"
     inkscape:zoom="17.966584"
     inkscape:cx="26.987172"
     inkscape:cy="13.662357"
     inkscape:window-x="0"
     inkscape:window-y="27"
     inkscape:window-maximized="1"
     inkscape:current-layer="svg4543" />
  <g
     id="g4492">
    <path
       d="M 10.470067,31.689976 C 9.766287,28.235161 8.5253496,25.360022 7.0225143,22.695476 5.9076966,20.718987 4.6163075,18.894635 3.4213737,16.977875 3.0224815,16.338054 2.6782346,15.662105 2.2949371,14.998119 1.5285239,13.670349 0.90712922,12.130787 0.94661541,10.133965 0.98519387,8.1828937 1.5494924,6.6177882 2.3632165,5.3380726 3.7015532,3.2332318 5.9432977,1.5076399 8.9511468,1.0541387 11.410545,0.68334974 13.716357,1.3097913 15.351358,2.2659199 c 1.336104,0.7813364 2.370987,1.825079 3.157443,3.0550511 0.820949,1.2838185 1.386283,2.8005239 1.433666,4.778827 0.02433,1.01357 -0.141604,1.952161 -0.375436,2.730811 -0.236554,0.788072 -0.617074,1.446828 -0.955657,2.150409 -0.661008,1.373556 -1.489582,2.632049 -2.321243,3.89125 -2.47701,3.750916 -4.801884,7.576084 -5.819991,12.817671 z"
       stroke-miterlimit="10"
       id="path4537"
       inkscape:connector-curvature="0"
       style="fill:#86bb50;fill-opacity:1;fill-rule:evenodd;stroke:#000000;stroke-width:1.51181102;stroke-miterlimit:7;stroke-dasharray:none;stroke-opacity:1" />
  </g>
  <circle
     style="fill:#ffffff;fill-rule:evenodd;stroke:#000000;stroke-width:1.51181102;stroke-miterlimit:7;stroke-dasharray:none;stroke-opacity:1"
     id="circle4539"
     r="3.3282773"
     cy="10.112361"
     cx="10.444833" />
</svg>
