<?xml version="1.0" encoding="UTF-8" standalone="no"?>
<!-- Generator: Adobe Illustrator 16.0.0, SVG Export Plug-In . SVG Version: 6.00 Build 0)  -->

<svg
   xmlns:dc="http://purl.org/dc/elements/1.1/"
   xmlns:cc="http://creativecommons.org/ns#"
   xmlns:rdf="http://www.w3.org/1999/02/22-rdf-syntax-ns#"
   xmlns:svg="http://www.w3.org/2000/svg"
   xmlns="http://www.w3.org/2000/svg"
   xmlns:sodipodi="http://sodipodi.sourceforge.net/DTD/sodipodi-0.dtd"
   xmlns:inkscape="http://www.inkscape.org/namespaces/inkscape"
   version="1.1"
   id="Capa_1"
   x="0px"
   y="0px"
   width="25"
   height="21.869617"
   viewBox="0 0 24.999999 21.869617"
   xml:space="preserve"
   sodipodi:docname="camping.svg"
   inkscape:version="0.92.1 r"><metadata
     id="metadata4701"><rdf:RDF><cc:Work
         rdf:about=""><dc:format>image/svg+xml</dc:format><dc:type
           rdf:resource="http://purl.org/dc/dcmitype/StillImage" /></cc:Work></rdf:RDF></metadata><defs
     id="defs4699" /><sodipodi:namedview
     pagecolor="#ffffff"
     bordercolor="#666666"
     borderopacity="1"
     objecttolerance="10"
     gridtolerance="10"
     guidetolerance="10"
     inkscape:pageopacity="0"
     inkscape:pageshadow="2"
     inkscape:window-width="1920"
     inkscape:window-height="1016"
     id="namedview4697"
     showgrid="false"
     inkscape:zoom="27.546108"
     inkscape:cx="17.531029"
     inkscape:cy="5.5762521"
     inkscape:window-x="0"
     inkscape:window-y="27"
     inkscape:window-maximized="1"
     inkscape:current-layer="Capa_1" /><path
     d="M 6.0729069,21.009889 11.847909,8.682813 v 11.926121 c 0,1.067325 1.131426,1.006127 1.37164,1.006127 h 11.254495 c 0.240172,0 0.337865,-0.386735 0.218979,-0.595194 L 13.065336,0.40945505 c -0.118914,-0.2083872 -0.311417,-0.2083872 -0.430311,0 L 9.7234011,5.522166 C 9.6044646,5.7305535 9.3383945,5.9942843 9.1282829,6.1108209 6.1831023,7.7449805 2.2112543,9.927286 0.45107879,10.699641 c -0.26373106,0.115983 -0.24901785,0.44854 -0.0435859,0.649909 0.39147188,0.382667 1.22329631,1.258078 1.99152731,2.312381 0.4468136,0.61341 0.8376712,1.297472 1.1579776,1.976253 0.1024457,0.217196 0.082988,0.564518 -0.035905,0.773464 l -2.5007621,4.608219 c -0.11770531,0.208459 -0.019392,0.595194 0.220762,0.595194 h 4.2003054 c 0.2400296,5e-5 0.5225987,-0.390877 0.6315088,-0.605172 z M 2.7144607,11.512688 c -0.1077336,-0.09542 -0.095359,-0.222546 0.032382,-0.289648 1.2391787,-0.648739 7.1018979,-3.7257845 8.7319864,-4.7224093 0.123075,-0.075342 0.167756,-0.035327 0.10245,0.093016 L 6.024089,17.513755 C 5.95871,17.642095 5.8839736,17.631515 5.8522074,17.490771 5.6432045,16.567646 4.7948825,13.352891 2.7144607,11.512688 Z"
     id="path4660"
     inkscape:connector-curvature="0"
     style="fill:#00ba00;fill-opacity:1;stroke:#000000;stroke-width:0.5063293;stroke-miterlimit:4;stroke-dasharray:none;stroke-opacity:1" /><g
     id="g4666"
     transform="translate(0.14859675,-429.35036)" /><g
     id="g4668"
     transform="translate(0.14859675,-429.35036)" /><g
     id="g4670"
     transform="translate(0.14859675,-429.35036)" /><g
     id="g4672"
     transform="translate(0.14859675,-429.35036)" /><g
     id="g4674"
     transform="translate(0.14859675,-429.35036)" /><g
     id="g4676"
     transform="translate(0.14859675,-429.35036)" /><g
     id="g4678"
     transform="translate(0.14859675,-429.35036)" /><g
     id="g4680"
     transform="translate(0.14859675,-429.35036)" /><g
     id="g4682"
     transform="translate(0.14859675,-429.35036)" /><g
     id="g4684"
     transform="translate(0.14859675,-429.35036)" /><g
     id="g4686"
     transform="translate(0.14859675,-429.35036)" /><g
     id="g4688"
     transform="translate(0.14859675,-429.35036)" /><g
     id="g4690"
     transform="translate(0.14859675,-429.35036)" /><g
     id="g4692"
     transform="translate(0.14859675,-429.35036)" /><g
     id="g4694"
     transform="translate(0.14859675,-429.35036)" /></svg>